<svg width="802" height="802" viewBox="0 0 802 802" fill="none" xmlns="http://www.w3.org/2000/svg">
<circle cx="323.638" cy="305.546" r="95.5456" fill="white" stroke="white" stroke-width="12" stroke-miterlimit="4.13936" stroke-linejoin="round"/>
<path d="M489.277 583.349C492.59 583.349 495.277 580.663 495.277 577.349C495.277 529.055 475.877 490.958 444.198 465.049C412.65 439.247 369.325 425.838 321.723 425.838C274.114 425.838 231.706 439.253 201.091 465.11C170.357 491.067 152 529.165 152 577.349C152 580.663 154.686 583.349 158 583.349V577.349C158 583.349 158 583.349 158.001 583.349H158.003H158.007H158.013H158.02H158.029H158.039H158.052H158.065H158.081H158.097H158.116H158.136H158.158H158.181H158.206H158.232H158.26H158.289H158.321H158.353H158.388H158.423H158.461H158.5H158.54H158.582H158.626H158.671H158.718H158.766H158.816H158.868H158.921H158.975H159.031H159.089H159.148H159.209H159.271H159.335H159.4H159.467H159.535H159.605H159.676H159.749H159.823H159.899H159.977H160.056H160.136H160.218H160.301H160.386H160.473H160.561H160.65H160.741H160.833H160.927H161.023H161.119H161.218H161.318H161.419H161.522H161.626H161.732H161.839H161.948H162.058H162.169H162.282H162.397H162.513H162.63H162.749H162.869H162.991H163.114H163.239H163.365H163.492H163.621H163.752H163.884H164.017H164.152H164.288H164.425H164.564H164.705H164.846H164.99H165.134H165.28H165.428H165.576H165.727H165.878H166.031H166.186H166.342H166.499H166.657H166.817H166.979H167.142H167.306H167.471H167.638H167.806H167.976H168.147H168.32H168.493H168.668H168.845H169.023H169.202H169.383H169.565H169.748H169.932H170.118H170.306H170.494H170.684H170.876H171.068H171.262H171.458H171.654H171.852H172.052H172.252H172.454H172.658H172.862H173.068H173.276H173.484H173.694H173.905H174.118H174.331H174.546H174.763H174.98H175.199H175.42H175.641H175.864H176.088H176.314H176.54H176.768H176.997H177.228H177.46H177.693H177.927H178.163H178.4H178.638H178.877H179.118H179.36H179.603H179.847H180.093H180.34H180.588H180.837H181.088H181.34H181.593H181.847H182.102H182.359H182.617H182.876H183.137H183.399H183.661H183.926H184.191H184.457H184.725H184.994H185.264H185.536H185.808H186.082H186.357H186.633H186.91H187.189H187.469H187.749H188.032H188.315H188.599H188.885H189.172H189.46H189.749H190.039H190.331H190.623H190.917H191.212H191.508H191.805H192.104H192.403H192.704H193.006H193.309H193.613H193.918H194.225H194.532H194.841H195.151H195.462H195.774H196.087H196.402H196.717H197.034H197.351H197.67H197.99H198.311H198.633H198.957H199.281H199.607H199.933H200.261H200.589H200.919H201.25H201.582H201.915H202.25H202.585H202.921H203.259H203.597H203.937H204.277H204.619H204.962H205.306H205.651H205.997H206.344H206.692H207.041H207.391H207.743H208.095H208.448H208.803H209.158H209.515H209.872H210.231H210.59H210.951H211.312H211.675H212.039H212.403H212.769H213.136H213.504H213.873H214.242H214.613H214.985H215.358H215.732H216.106H216.482H216.859H217.237H217.616H217.995H218.376H218.758H219.141H219.524H219.909H220.295H220.681H221.069H221.458H221.847H222.238H222.629H223.022H223.415H223.809H224.205H224.601H224.998H225.396H225.795H226.196H226.597H226.998H227.401H227.805H228.21H228.616H229.022H229.43H229.838H230.248H230.658H231.069H231.481H231.894H232.308H232.723H233.139H233.556H233.973H234.392H234.811H235.231H235.653H236.075H236.498H236.922H237.346H237.772H238.198H238.626H239.054H239.483H239.913H240.344H240.776H241.209H241.642H242.076H242.512H242.948H243.385H243.822H244.261H244.7H245.141H245.582H246.024H246.467H246.91H247.355H247.8H248.247H248.694H249.141H249.59H250.04H250.49H250.941H251.393H251.846H252.299H252.754H253.209H253.665H254.122H254.579H255.038H255.497H255.957H256.418H256.879H257.342H257.805H258.269H258.734H259.199H259.666H260.133H260.6H261.069H261.538H262.009H262.48H262.951H263.424H263.897H264.371H264.846H265.321H265.797H266.274H266.752H267.23H267.71H268.189H268.67H269.152H269.634H270.117H270.6H271.084H271.57H272.055H272.542H273.029H273.517H274.006H274.495H274.985H275.476H275.967H276.459H276.952H277.446H277.94H278.435H278.931H279.427H279.924H280.422H280.92H281.419H281.919H282.419H282.921H283.422H283.925H284.428H284.932H285.436H285.941H286.447H286.954H287.461H287.968H288.477H288.986H289.495H290.006H290.517H291.028H291.541H292.054H292.567H293.081H293.596H294.111H294.627H295.144H295.661H296.179H296.698H297.217H297.737H298.257H298.778H299.299H299.822H300.344H300.868H301.392H301.916H302.441H302.967H303.494H304.02H304.548H305.076H305.605H306.134H306.664H307.194H307.725H308.257H308.789H309.321H309.855H310.388H310.923H311.458H311.993H312.529H313.066H313.603H314.14H314.679H315.217H315.757H316.296H316.837H317.378H317.919H318.461H319.003H319.546H320.09H320.634H321.178H321.723H322.269H322.813H323.357H323.901H324.445H324.988H325.53H326.072H326.614H327.155H327.696H328.236H328.776H329.315H329.854H330.392H330.93H331.468H332.005H332.541H333.077H333.613H334.148H334.683H335.217H335.75H336.284H336.816H337.348H337.88H338.411H338.942H339.472H340.002H340.531H341.06H341.588H342.115H342.642H343.169H343.695H344.22H344.745H345.27H345.794H346.317H346.84H347.362H347.884H348.405H348.926H349.446H349.965H350.484H351.003H351.521H352.038H352.555H353.071H353.587H354.102H354.616H355.13H355.643H356.156H356.668H357.179H357.69H358.201H358.71H359.219H359.728H360.236H360.743H361.25H361.756H362.261H362.766H363.27H363.774H364.277H364.779H365.281H365.782H366.283H366.782H367.282H367.78H368.278H368.775H369.272H369.768H370.263H370.758H371.252H371.745H372.238H372.73H373.221H373.712H374.201H374.691H375.179H375.667H376.154H376.641H377.127H377.612H378.096H378.58H379.063H379.546H380.027H380.508H380.988H381.468H381.947H382.425H382.902H383.379H383.855H384.33H384.804H385.278H385.751H386.223H386.695H387.166H387.636H388.105H388.574H389.041H389.508H389.975H390.44H390.905H391.369H391.832H392.295H392.756H393.217H393.677H394.137H394.595H395.053H395.51H395.966H396.421H396.876H397.33H397.783H398.235H398.687H399.137H399.587H400.036H400.484H400.931H401.378H401.824H402.268H402.712H403.156H403.598H404.04H404.48H404.92H405.359H405.797H406.235H406.671H407.107H407.542H407.975H408.409H408.841H409.272H409.702H410.132H410.561H410.989H411.416H411.842H412.267H412.691H413.115H413.537H413.959H414.38H414.799H415.218H415.636H416.054H416.47H416.885H417.299H417.713H418.126H418.537H418.948H419.358H419.767H420.175H420.582H420.988H421.393H421.797H422.2H422.603H423.004H423.405H423.804H424.202H424.6H424.997H425.392H425.787H426.181H426.573H426.965H427.356H427.746H428.135H428.522H428.909H429.295H429.68H430.064H430.447H430.829H431.21H431.59H431.968H432.346H432.723H433.099H433.474H433.848H434.22H434.592H434.963H435.333H435.701H436.069H436.436H436.801H437.166H437.529H437.892H438.253H438.614H438.973H439.331H439.689H440.045H440.4H440.754H441.107H441.459H441.809H442.159H442.508H442.855H443.202H443.547H443.892H444.235H444.577H444.918H445.258H445.597H445.935H446.271H446.607H446.941H447.274H447.607H447.938H448.268H448.596H448.924H449.251H449.576H449.901H450.224H450.546H450.867H451.186H451.505H451.823H452.139H452.454H452.768H453.081H453.393H453.703H454.012H454.321H454.628H454.934H455.238H455.542H455.844H456.145H456.445H456.744H457.042H457.338H457.633H457.927H458.22H458.511H458.802H459.091H459.379H459.666H459.951H460.236H460.519H460.801H461.081H461.361H461.639H461.916H462.192H462.466H462.739H463.011H463.282H463.552H463.82H464.087H464.353H464.617H464.88H465.142H465.403H465.663H465.921H466.178H466.433H466.688H466.941H467.193H467.443H467.692H467.94H468.187H468.432H468.676H468.919H469.16H469.401H469.639H469.877H470.113H470.348H470.582H470.814H471.045H471.274H471.503H471.73H471.955H472.179H472.402H472.624H472.844H473.063H473.281H473.497H473.712H473.925H474.138H474.348H474.558H474.766H474.973H475.178H475.382H475.584H475.786H475.985H476.184H476.381H476.577H476.771H476.964H477.155H477.345H477.534H477.721H477.907H478.092H478.275H478.456H478.637H478.815H478.993H479.169H479.343H479.517H479.688H479.859H480.027H480.195H480.361H480.525H480.688H480.85H481.01H481.169H481.326H481.482H481.636H481.789H481.94H482.09H482.239H482.386H482.531H482.676H482.818H482.959H483.099H483.237H483.374H483.509H483.642H483.775H483.905H484.034H484.162H484.288H484.413H484.536H484.657H484.777H484.896H485.013H485.129H485.243H485.355H485.466H485.575H485.683H485.789H485.894H485.997H486.099H486.199H486.298H486.395H486.49H486.584H486.677H486.767H486.857H486.944H487.03H487.115H487.198H487.279H487.359H487.437H487.513H487.588H487.662H487.734H487.804H487.872H487.939H488.005H488.069H488.131H488.191H488.25H488.308H488.363H488.417H488.47H488.521H488.57H488.617H488.663H488.708H488.75H488.791H488.831H488.868H488.905H488.939H488.972H489.003H489.032H489.06H489.086H489.111H489.133H489.155H489.174H489.192H489.208H489.222H489.235H489.246H489.255H489.263H489.269H489.273H489.276C489.276 583.349 489.277 583.349 489.277 577.349V583.349Z" fill="white" stroke="white" stroke-width="12" stroke-miterlimit="4.13936" stroke-linejoin="round"/>
<circle cx="573.362" cy="309.118" r="41.1637" fill="white" stroke="white" stroke-width="5.16994" stroke-miterlimit="4.13936" stroke-linejoin="round"/>
<path d="M644.723 433.926C646.151 433.926 647.308 432.769 647.308 431.341C647.308 410.535 638.95 394.121 625.302 382.959C611.711 371.843 593.045 366.066 572.537 366.066C552.025 366.066 533.754 371.845 520.565 382.985C507.324 394.169 499.415 410.582 499.415 431.341C499.415 432.769 500.572 433.926 502 433.926V431.341C502 433.926 502 433.926 502 433.926H502.001H502.003H502.006H502.009H502.013H502.017H502.022H502.028H502.035H502.042H502.05H502.059H502.068H502.078H502.089H502.1H502.112H502.125H502.138H502.152H502.167H502.182H502.199H502.215H502.233H502.251H502.27H502.289H502.309H502.33H502.352H502.374H502.397H502.42H502.444H502.469H502.495H502.521H502.547H502.575H502.603H502.632H502.661H502.691H502.722H502.753H502.786H502.818H502.852H502.886H502.92H502.956H502.991H503.028H503.065H503.103H503.142H503.181H503.221H503.261H503.302H503.344H503.386H503.429H503.473H503.517H503.562H503.608H503.654H503.701H503.748H503.796H503.845H503.894H503.944H503.995H504.046H504.098H504.15H504.203H504.257H504.311H504.366H504.422H504.478H504.535H504.592H504.65H504.709H504.768H504.828H504.889H504.95H505.011H505.074H505.136H505.2H505.264H505.329H505.394H505.46H505.527H505.594H505.662H505.73H505.799H505.868H505.938H506.009H506.08H506.152H506.225H506.298H506.372H506.446H506.521H506.596H506.672H506.749H506.826H506.904H506.982H507.061H507.141H507.221H507.302H507.383H507.465H507.547H507.63H507.714H507.798H507.883H507.968H508.054H508.14H508.227H508.315H508.403H508.492H508.581H508.671H508.761H508.852H508.944H509.036H509.129H509.222H509.316H509.41H509.505H509.6H509.696H509.793H509.89H509.988H510.086H510.185H510.284H510.384H510.484H510.585H510.687H510.789H510.891H510.994H511.098H511.202H511.307H511.412H511.518H511.625H511.731H511.839H511.947H512.055H512.164H512.274H512.384H512.495H512.606H512.717H512.83H512.942H513.056H513.169H513.284H513.399H513.514H513.63H513.746H513.863H513.981H514.098H514.217H514.336H514.455H514.575H514.696H514.817H514.938H515.06H515.183H515.306H515.43H515.554H515.678H515.803H515.929H516.055H516.182H516.309H516.436H516.564H516.693H516.822H516.952H517.082H517.212H517.343H517.475H517.607H517.739H517.872H518.006H518.14H518.274H518.409H518.545H518.68H518.817H518.954H519.091H519.229H519.367H519.506H519.645H519.785H519.925H520.066H520.207H520.349H520.491H520.633H520.776H520.92H521.064H521.208H521.353H521.499H521.645H521.791H521.938H522.085H522.233H522.381H522.529H522.678H522.828H522.978H523.128H523.279H523.431H523.582H523.735H523.887H524.04H524.194H524.348H524.502H524.657H524.813H524.969H525.125H525.281H525.439H525.596H525.754H525.913H526.071H526.231H526.391H526.551H526.711H526.872H527.034H527.196H527.358H527.521H527.684H527.848H528.012H528.176H528.341H528.506H528.672H528.838H529.005H529.172H529.339H529.507H529.675H529.844H530.013H530.183H530.353H530.523H530.694H530.865H531.036H531.208H531.381H531.553H531.726H531.9H532.074H532.248H532.423H532.598H532.774H532.95H533.126H533.303H533.48H533.658H533.836H534.014H534.193H534.372H534.552H534.731H534.912H535.092H535.274H535.455H535.637H535.819H536.002H536.185H536.368H536.552H536.736H536.92H537.105H537.291H537.476H537.662H537.849H538.035H538.222H538.41H538.598H538.786H538.975H539.164H539.353H539.543H539.733H539.923H540.114H540.305H540.497H540.689H540.881H541.073H541.266H541.46H541.653H541.847H542.042H542.236H542.431H542.627H542.823H543.019H543.215H543.412H543.609H543.807H544.005H544.203H544.401H544.6H544.799H544.999H545.199H545.399H545.599H545.8H546.002H546.203H546.405H546.607H546.81H547.013H547.216H547.419H547.623H547.828H548.032H548.237H548.442H548.648H548.853H549.06H549.266H549.473H549.68H549.887H550.095H550.303H550.511H550.72H550.929H551.138H551.348H551.558H551.768H551.978H552.189H552.4H552.612H552.824H553.036H553.248H553.461H553.674H553.887H554.1H554.314H554.528H554.743H554.958H555.173H555.388H555.603H555.819H556.036H556.252H556.469H556.686H556.903H557.121H557.339H557.557H557.775H557.994H558.213H558.432H558.652H558.872H559.092H559.312H559.533H559.754H559.975H560.197H560.419H560.641H560.863H561.086H561.308H561.532H561.755H561.979H562.202H562.427H562.651H562.876H563.101H563.326H563.551H563.777H564.003H564.229H564.456H564.683H564.91H565.137H565.365H565.592H565.82H566.049H566.277H566.506H566.735H566.964H567.194H567.423H567.653H567.883H568.114H568.345H568.576H568.807H569.038H569.27H569.502H569.734H569.966H570.199H570.431H570.664H570.898H571.131H571.365H571.599H571.833H572.067H572.302H572.537H572.772H573.006H573.241H573.475H573.709H573.943H574.177H574.41H574.644H574.877H575.11H575.342H575.575H575.807H576.039H576.271H576.503H576.735H576.966H577.197H577.428H577.659H577.89H578.12H578.35H578.58H578.81H579.039H579.268H579.497H579.726H579.955H580.183H580.411H580.639H580.867H581.095H581.322H581.549H581.776H582.003H582.229H582.455H582.681H582.907H583.132H583.358H583.583H583.807H584.032H584.256H584.48H584.704H584.928H585.151H585.374H585.597H585.82H586.042H586.264H586.486H586.708H586.929H587.15H587.371H587.592H587.812H588.032H588.252H588.472H588.691H588.91H589.129H589.347H589.566H589.784H590.002H590.219H590.436H590.653H590.87H591.086H591.303H591.518H591.734H591.949H592.164H592.379H592.594H592.808H593.022H593.236H593.449H593.662H593.875H594.087H594.3H594.512H594.723H594.935H595.146H595.357H595.567H595.777H595.987H596.197H596.406H596.615H596.824H597.032H597.24H597.448H597.656H597.863H598.07H598.276H598.483H598.689H598.894H599.1H599.305H599.509H599.714H599.918H600.122H600.325H600.528H600.731H600.934H601.136H601.338H601.539H601.74H601.941H602.142H602.342H602.542H602.742H602.941H603.14H603.338H603.536H603.734H603.932H604.129H604.326H604.523H604.719H604.915H605.11H605.305H605.5H605.695H605.889H606.082H606.276H606.469H606.662H606.854H607.046H607.238H607.429H607.62H607.811H608.001H608.191H608.38H608.569H608.758H608.947H609.135H609.322H609.51H609.697H609.883H610.069H610.255H610.441H610.626H610.81H610.995H611.179H611.362H611.545H611.728H611.911H612.093H612.274H612.456H612.636H612.817H612.997H613.177H613.356H613.535H613.714H613.892H614.069H614.247H614.424H614.6H614.777H614.952H615.128H615.303H615.477H615.651H615.825H615.998H616.171H616.344H616.516H616.688H616.859H617.03H617.2H617.37H617.54H617.709H617.878H618.046H618.214H618.382H618.549H618.715H618.882H619.047H619.213H619.378H619.542H619.706H619.87H620.033H620.196H620.359H620.52H620.682H620.843H621.004H621.164H621.324H621.483H621.642H621.8H621.958H622.116H622.273H622.429H622.585H622.741H622.896H623.051H623.205H623.359H623.513H623.666H623.818H623.97H624.122H624.273H624.424H624.574H624.724H624.873H625.022H625.17H625.318H625.465H625.612H625.759H625.905H626.05H626.195H626.34H626.484H626.628H626.771H626.913H627.056H627.197H627.338H627.479H627.619H627.759H627.898H628.037H628.175H628.313H628.45H628.587H628.723H628.859H628.994H629.129H629.263H629.397H629.531H629.663H629.796H629.927H630.059H630.189H630.32H630.449H630.579H630.707H630.836H630.963H631.09H631.217H631.343H631.469H631.594H631.719H631.843H631.966H632.089H632.212H632.334H632.455H632.576H632.696H632.816H632.936H633.054H633.173H633.29H633.408H633.524H633.64H633.756H633.871H633.985H634.099H634.213H634.326H634.438H634.55H634.661H634.772H634.882H634.991H635.1H635.209H635.317H635.424H635.531H635.637H635.743H635.848H635.953H636.057H636.16H636.263H636.365H636.467H636.568H636.669H636.769H636.869H636.967H637.066H637.164H637.261H637.357H637.453H637.549H637.644H637.738H637.832H637.925H638.018H638.11H638.201H638.292H638.382H638.472H638.561H638.649H638.737H638.824H638.911H638.997H639.083H639.168H639.252H639.336H639.419H639.501H639.583H639.664H639.745H639.825H639.905H639.983H640.062H640.139H640.216H640.293H640.369H640.444H640.518H640.592H640.666H640.738H640.811H640.882H640.953H641.023H641.093H641.162H641.23H641.298H641.365H641.432H641.498H641.563H641.627H641.691H641.755H641.817H641.879H641.941H642.002H642.062H642.121H642.18H642.238H642.296H642.353H642.409H642.465H642.52H642.574H642.628H642.681H642.733H642.785H642.836H642.886H642.936H642.985H643.034H643.082H643.129H643.175H643.221H643.266H643.311H643.354H643.398H643.44H643.482H643.523H643.563H643.603H643.642H643.681H643.718H643.756H643.792H643.828H643.863H643.897H643.931H643.964H643.996H644.028H644.059H644.089H644.118H644.147H644.175H644.203H644.23H644.256H644.281H644.306H644.33H644.353H644.376H644.398H644.419H644.439H644.459H644.478H644.497H644.514H644.531H644.548H644.563H644.578H644.592H644.605H644.618H644.63H644.641H644.652H644.662H644.671H644.679H644.687H644.694H644.7H644.705H644.71H644.714H644.717H644.72H644.722H644.723C644.723 433.926 644.723 433.926 644.723 431.341V433.926Z" fill="white" stroke="white" stroke-width="5.16994" stroke-miterlimit="4.13936" stroke-linejoin="round"/>
</svg>
